<?xml version="1.0" encoding="UTF-8" standalone="no"?>
<svg width="512" height="512" viewBox="0 0 512 512" fill="none" xmlns="http://www.w3.org/2000/svg">
  <!-- 背景圆形 -->
  <circle cx="256" cy="256" r="256" fill="#F7931A"/>

  <!-- 比特币符号 -->
  <path d="M320 256C320 273.555 315.472 290.51 306.854 305.557C298.236 320.604 285.782 333.058 270.735 341.676C255.688 350.294 238.733 354.822 221.178 354.822C203.623 354.822 186.668 350.294 171.621 341.676C156.574 333.058 144.12 320.604 135.502 305.557C126.884 290.51 122.356 273.555 122.356 256C122.356 238.445 126.884 221.49 135.502 206.443C144.12 191.396 156.574 178.942 171.621 170.324C186.668 161.706 203.623 157.178 221.178 157.178C238.733 157.178 255.688 161.706 270.735 170.324C285.782 178.942 298.236 191.396 306.854 206.443C315.472 221.49 320 238.445 320 256Z" fill="white"/>

  <!-- 比特币符号内部 -->
  <path d="M270 180H230V230H200V180H180V330H200V280H230V330H250V280H270C290 280 305 265 305 245C305 225 290 210 270 210H250V250H270C275 250 280 245 280 240C280 235 275 230 270 230H250V180H270Z" fill="#F7931A"/>

  <!-- 以太坊符号 -->
  <path d="M390 256L340 206V306L390 256Z" fill="#627EEA"/>
  <path d="M390 256L440 206V306L390 256Z" fill="#627EEA"/>
  <path d="M390 226L340 256L390 286L440 256L390 226Z" fill="#627EEA"/>

  <!-- 狗狗币符号 -->
  <circle cx="120" cy="390" r="50" fill="#C3A634"/>
  <path d="M120 350V430" stroke="white" stroke-width="10"/>
  <path d="M90 390H150" stroke="white" stroke-width="10"/>

  <!-- 索拉纳符号 -->
  <circle cx="390" cy="390" r="50" fill="#14F195"/>
  <path d="M370 370L410 410" stroke="white" stroke-width="10"/>
  <path d="M370 410L410 370" stroke="white" stroke-width="10"/>
</svg>
